<?xml version="1.0" encoding="UTF-8"?>
<!DOCTYPE svg PUBLIC "-//W3C//DTD SVG 1.1//EN" "http://www.w3.org/Graphics/SVG/1.1/DTD/svg11.dtd">
<svg version="1.1" xmlns="http://www.w3.org/2000/svg" xmlns:xlink="http://www.w3.org/1999/xlink" x="0" y="0" width="226.19" height="187.3" viewBox="0, 0, 226.19, 187.3">
  <g id="Calque_1" transform="translate(0, 0)">
    <g>
      <g>
        <path d="M-0,77.49 L-0,77.49 C-0.022,59.628 14.448,45.136 32.31,45.13 L58.17,45.13 C61.735,45.136 64.624,48.025 64.63,51.59 L64.63,180.84 C64.63,184.408 61.738,187.3 58.17,187.3 L32.31,187.3 C14.472,187.294 0.011,172.838 -0,155 L-0,77.49 z" fill="#FF3333"/>
        <path d="M84.01,-0 L135.72,-0 C139.288,-0 142.18,2.892 142.18,6.46 L142.18,180.84 C142.18,184.408 139.288,187.3 135.72,187.3 L84.01,187.3 C80.442,187.3 77.55,184.408 77.55,180.84 L77.55,6.46 C77.55,2.892 80.442,-0 84.01,-0 z" fill="#FF3333"/>
      </g>
      <path d="M226.19,155 C226.184,172.843 211.716,187.304 193.873,187.3 C176.03,187.296 161.568,172.83 161.57,154.987 C161.572,137.144 176.037,122.68 193.88,122.68 C211.726,122.686 226.19,137.154 226.19,155 z" fill="#FF3333"/>
    </g>
  </g>
</svg>
